<?xml version="1.0" standalone="no"?>
<!DOCTYPE svg PUBLIC "-//W3C//DTD SVG 20010904//EN"
 "http://www.w3.org/TR/2001/REC-SVG-20010904/DTD/svg10.dtd">
<svg version="1.0" xmlns="http://www.w3.org/2000/svg"
 width="225.000000pt" height="225.000000pt" viewBox="0 0 225.000000 225.000000"
 preserveAspectRatio="xMidYMid meet">

<g transform="translate(0.000000,225.000000) scale(0.100000,-0.100000)"
fill="#000000" stroke="none">
<path d="M636 1905 c-12 -32 5 -48 46 -42 34 5 39 2 44 -19 3 -13 1 -71 -6
-129 -12 -105 -11 -123 8 -111 19 11 31 220 16 269 -11 36 -96 62 -108 32z"/>
<path d="M304 1845 c-14 -37 24 -67 58 -46 15 9 26 8 55 -5 49 -24 73 -67 73
-131 0 -29 4 -53 9 -53 24 0 28 83 7 133 -17 42 -52 72 -98 87 -21 6 -38 16
-38 21 0 15 -60 10 -66 -6z"/>
<path d="M407 1374 c-10 -11 -9 -42 3 -49 20 -12 51 6 48 28 -3 22 -36 35 -51
21z"/>
<path d="M644 1365 c-7 -17 12 -45 31 -45 7 0 18 7 25 15 10 12 10 18 0 30
-16 19 -49 19 -56 0z"/>
<path d="M970 1255 c-56 -45 -86 -79 -111 -130 -10 -22 -31 -53 -45 -70 -39
-44 -94 -132 -94 -150 0 -8 -4 -15 -8 -15 -5 0 -14 -17 -20 -38 -8 -26 -21
-43 -47 -56 -19 -11 -35 -25 -35 -33 0 -9 12 -6 40 12 22 14 42 25 45 25 8 0
76 -50 99 -73 18 -18 18 -19 -10 -49 -16 -17 -51 -48 -77 -69 -35 -28 -43 -39
-30 -39 10 0 51 29 89 64 45 41 78 64 90 62 51 -8 128 65 143 136 12 52 17 65
81 208 72 158 75 206 18 234 -47 24 -78 19 -128 -19z"/>
<path d="M420 1240 c0 -64 112 -96 160 -45 20 21 21 25 7 31 -9 3 -24 -1 -32
-10 -26 -25 -64 -19 -95 14 -33 35 -40 37 -40 10z"/>
<path d="M1413 1176 c-24 -30 -54 -91 -93 -186 -17 -41 -36 -84 -42 -95 -7
-11 -25 -45 -41 -75 -16 -30 -37 -64 -48 -75 -25 -28 -49 -88 -49 -124 0 -38
44 -75 112 -96 72 -21 105 -19 132 8 27 27 150 268 162 317 10 45 8 40 27 81
26 58 33 159 13 196 -24 48 -62 73 -112 73 -33 0 -47 -5 -61 -24z"/>
<path d="M1783 863 c-12 -10 -36 -47 -54 -83 -17 -36 -47 -87 -67 -115 -50
-70 -75 -130 -67 -164 7 -31 50 -61 90 -61 15 0 39 -8 53 -19 75 -52 212 -100
212 -74 0 6 -18 13 -41 17 -50 8 -127 46 -154 76 -14 16 -16 22 -5 18 19 -6
85 63 129 137 56 92 54 188 -4 251 -29 32 -65 38 -92 17z"/>
<path d="M1527 424 c-17 -17 116 -174 147 -174 10 0 -9 25 -44 60 -34 34 -69
74 -79 90 -10 17 -21 27 -24 24z"/>
</g>
</svg>
